# xmcd
#
# Track frame offsets:
#	150
#	14155
#	25851
#	36585
#	49553
#	64635
#	81094
#	94010
#	111719
#	123932
#	137921
#	151750
#	165363
#	177670
#	195646
#
# Disc length: 2910 seconds
#
# Revision: 1
# Processed by: cddbd v1.5.2PL0 Copyright (c) Steve Scherf et al.
# Submitted via: audiograbber 1.83.01
#
DISCID=cb0b5c0f
DTITLE=Sampler Soul - Heart and soul of Philly Groove
DYEAR=2000
DGENRE=Soul
TTITLE0=Bass, Billy - I need your love so bad
TTITLE1=Coup De Villes - So long goodbye, it's over
TTITLE2=Coup De Villes - When times are bad
TTITLE3=Aiken, Ben - One and one is five
TTITLE4=Aiken, Ben - When the bottom falls out
TTITLE5=Aiken, Ben - Follow the lamb
TTITLE6=Aiken, Ben - Not going to let you
TTITLE7=Broadway Express - Didn't we make it
TTITLE8=Broadway Express - Puff puff you're gone
TTITLE9=Turner, Nat - Ruby Lee
TTITLE10=Turner, Nat - You are my sun sign
TTITLE11=Aiken, Ben - I want to be your lover
TTITLE12=First Choice - Smarty pants
TTITLE13=Turner, Nat - Handle with care
TTITLE14=Philly Groove Orchestra - How could you (Delfonics theme)
EXTD=
EXTT0=
EXTT1=
EXTT2=
EXTT3=
EXTT4=
EXTT5=
EXTT6=
EXTT7=
EXTT8=
EXTT9=
EXTT10=
EXTT11=
EXTT12=
EXTT13=
EXTT14=
PLAYORDER=
